<svg width="196" height="196" viewBox="0 0 196 196" fill="none" xmlns="http://www.w3.org/2000/svg">
<rect width="196" height="196" fill="black"/>
<path d="M36.9219 113V44.75H59.2344C66.6406 44.75 72.2031 46.2812 75.9219 49.3438C79.6719 52.4062 81.5469 56.9375 81.5469 62.9375C81.5469 66.125 80.6406 68.9531 78.8281 71.4219C77.0156 73.8594 74.5469 75.75 71.4219 77.0938C75.1094 78.125 78.0156 80.0938 80.1406 83C82.2969 85.875 83.375 89.3125 83.375 93.3125C83.375 99.4375 81.3906 104.25 77.4219 107.75C73.4531 111.25 67.8438 113 60.5938 113H36.9219ZM45.9219 81.0781V105.641H60.7812C64.9688 105.641 68.2656 104.562 70.6719 102.406C73.1094 100.219 74.3281 97.2188 74.3281 93.4062C74.3281 85.1875 69.8594 81.0781 60.9219 81.0781H45.9219ZM45.9219 73.8594H59.5156C63.4531 73.8594 66.5938 72.875 68.9375 70.9062C71.3125 68.9375 72.5 66.2656 72.5 62.8906C72.5 59.1406 71.4062 56.4219 69.2188 54.7344C67.0312 53.0156 63.7031 52.1562 59.2344 52.1562H45.9219V73.8594Z" fill="white"/>
<path d="M94.5156 89.75H103.562V138.078C103.562 144.609 101.594 149.719 97.6562 153.406C93.75 157.094 88.5312 158.938 82 158.938C75.2188 158.938 69.9375 157.203 66.1562 153.734C62.375 150.266 60.4844 145.406 60.4844 139.156H69.4844C69.4844 143.062 70.5469 146.109 72.6719 148.297C74.8281 150.484 77.9375 151.578 82 151.578C85.7188 151.578 88.7188 150.406 91 148.062C93.3125 145.719 94.4844 142.438 94.5156 138.219V89.75ZM147.062 144.547C147.062 142.203 146.172 140.391 144.391 139.109C142.641 137.797 139.562 136.672 135.156 135.734C130.781 134.797 127.297 133.672 124.703 132.359C122.141 131.047 120.234 129.484 118.984 127.672C117.766 125.859 117.156 123.703 117.156 121.203C117.156 117.047 118.906 113.531 122.406 110.656C125.938 107.781 130.438 106.344 135.906 106.344C141.656 106.344 146.312 107.828 149.875 110.797C153.469 113.766 155.266 117.562 155.266 122.188H146.547C146.547 119.812 145.531 117.766 143.5 116.047C141.5 114.328 138.969 113.469 135.906 113.469C132.75 113.469 130.281 114.156 128.5 115.531C126.719 116.906 125.828 118.703 125.828 120.922C125.828 123.016 126.656 124.594 128.312 125.656C129.969 126.719 132.953 127.734 137.266 128.703C141.609 129.672 145.125 130.828 147.812 132.172C150.5 133.516 152.484 135.141 153.766 137.047C155.078 138.922 155.734 141.219 155.734 143.938C155.734 148.469 153.922 152.109 150.297 154.859C146.672 157.578 141.969 158.938 136.188 158.938C132.125 158.938 128.531 158.219 125.406 156.781C122.281 155.344 119.828 153.344 118.047 150.781C116.297 148.188 115.422 145.391 115.422 142.391H124.094C124.25 145.297 125.406 147.609 127.562 149.328C129.75 151.016 132.625 151.859 136.188 151.859C139.469 151.859 142.094 151.203 144.062 149.891C146.062 148.547 147.062 146.766 147.062 144.547Z" fill="white"/>
<path d="M98.8047 80.4688C95.3672 80.4688 92.5703 79.3438 90.4141 77.0938C88.2578 74.8281 87.1797 71.8047 87.1797 68.0234V67.2266C87.1797 64.7109 87.6562 62.4688 88.6094 60.5C89.5781 58.5156 90.9219 56.9688 92.6406 55.8594C94.375 54.7344 96.25 54.1719 98.2656 54.1719C101.562 54.1719 104.125 55.2578 105.953 57.4297C107.781 59.6016 108.695 62.7109 108.695 66.7578V68.5625H91.5156C91.5781 71.0625 92.3047 73.0859 93.6953 74.6328C95.1016 76.1641 96.8828 76.9297 99.0391 76.9297C100.57 76.9297 101.867 76.6172 102.93 75.9922C103.992 75.3672 104.922 74.5391 105.719 73.5078L108.367 75.5703C106.242 78.8359 103.055 80.4688 98.8047 80.4688ZM98.2656 57.7344C96.5156 57.7344 95.0469 58.375 93.8594 59.6562C92.6719 60.9219 91.9375 62.7031 91.6562 65H104.359V64.6719C104.234 62.4688 103.641 60.7656 102.578 59.5625C101.516 58.3438 100.078 57.7344 98.2656 57.7344ZM123.906 76.9297C125.453 76.9297 126.805 76.4609 127.961 75.5234C129.117 74.5859 129.758 73.4141 129.883 72.0078H133.984C133.906 73.4609 133.406 74.8438 132.484 76.1562C131.562 77.4688 130.328 78.5156 128.781 79.2969C127.25 80.0781 125.625 80.4688 123.906 80.4688C120.453 80.4688 117.703 79.3203 115.656 77.0234C113.625 74.7109 112.609 71.5547 112.609 67.5547V66.8281C112.609 64.3594 113.062 62.1641 113.969 60.2422C114.875 58.3203 116.172 56.8281 117.859 55.7656C119.562 54.7031 121.57 54.1719 123.883 54.1719C126.727 54.1719 129.086 55.0234 130.961 56.7266C132.852 58.4297 133.859 60.6406 133.984 63.3594H129.883C129.758 61.7188 129.133 60.375 128.008 59.3281C126.898 58.2656 125.523 57.7344 123.883 57.7344C121.68 57.7344 119.969 58.5312 118.75 60.125C117.547 61.7031 116.945 63.9922 116.945 66.9922V67.8125C116.945 70.7344 117.547 72.9844 118.75 74.5625C119.953 76.1406 121.672 76.9297 123.906 76.9297ZM143.195 57.7109C145.117 55.3516 147.617 54.1719 150.695 54.1719C156.055 54.1719 158.758 57.1953 158.805 63.2422V80H154.469V63.2188C154.453 61.3906 154.031 60.0391 153.203 59.1641C152.391 58.2891 151.117 57.8516 149.383 57.8516C147.977 57.8516 146.742 58.2266 145.68 58.9766C144.617 59.7266 143.789 60.7109 143.195 61.9297V80H138.859V44H143.195V57.7109Z" fill="white"/>
</svg>
